<svg xmlns="http://www.w3.org/2000/svg" width="182" height="182" fill="none"><rect width="182" height="182" fill="#54ADFF" rx="40"/><path fill="#9DCEFC" fill-opacity=".4" d="M160.826 177.301A39.816 39.816 0 0 1 142 182H40c-6.806 0-13.215-1.7-18.826-4.698a5.829 5.829 0 0 1-.155-1.881 5.866 5.866 0 0 1 2.178-4.099c4.042-3.201 8.98-5.483 14.303-6.613l25.567-5.123c2.69-.523 4.636-2.922 4.636-5.705v-5.856c-1.61-2.248-3.14-5.222-4.747-8.343l-.099-.191c-1.28-2.492-3.226-6.264-4.088-7.149-5.265-5.262-10.262-11.107-11.8-18.64-1.455-7.079.024-10.805 1.527-13.739l.151-4.203c-.163-6.985-.36-15.683 1.596-20.98C56.556 57.385 75.413 47.629 90.754 47c7.326.128 13.465 1.77 19.673 5.123.699.372 2.598.698 3.972.931 3.506.594 7.862 1.34 10.821 4.541 4.193 4.517 5.859 9.675 6.068 18.85 1.759 6.776 1.992 16.09 1.992 23.53 1.666 2.981 3.087 6.683 1.642 13.739-1.549 7.521-6.546 13.354-11.717 18.547-.944.966-2.842 4.703-4.1 7.183-1.619 3.202-3.168 6.264-4.811 8.569v5.857c0 2.794 1.934 5.192 4.613 5.705l25.543 5.123c5.358 1.117 10.297 3.423 14.35 6.624a5.823 5.823 0 0 1 2.179 4.087 5.736 5.736 0 0 1-.153 1.892Z"/></svg>